<svg id="Layer_2" data-name="Layer 2" xmlns="http://www.w3.org/2000/svg" viewBox="0 0 837.19 388.5"><title>ctd</title><path d="M715.87,372.39H570.46q-26.09,0-45,18.65t-18.87,44.83V644.13q0,26.17,18.87,44.83t45,18.65H836.87a14.11,14.11,0,0,1,13.32,13.59,12.35,12.35,0,0,1-4.16,9,12.83,12.83,0,0,1-9.16,4.08H570.46q-37.75,0-64.1-26.36T480,643.79V436.21q0-37.74,26.36-64.1t64.1-26.36H715.87a12.86,12.86,0,0,1,9.16,4.08,12.38,12.38,0,0,1,4.16,9A14.12,14.12,0,0,1,715.87,372.39Z" transform="translate(-480 -345.75)"/><path d="M1072.16,368.31a12.9,12.9,0,0,1-4.16-9.51,12.38,12.38,0,0,1,4.16-9,12.86,12.86,0,0,1,9.16-4.08h145.41q37.75,0,64.1,26.36t26.36,64.1V643.79q0,37.75-26.36,64.1t-64.1,26.36H960.32a12.83,12.83,0,0,1-9.16-4.08,12.35,12.35,0,0,1-4.16-9,14.11,14.11,0,0,1,13.32-13.59h266.41q26.09,0,45-18.65t18.87-44.83V435.87q0-26.17-18.87-44.83t-45-18.65H1081.32A12.83,12.83,0,0,1,1072.16,368.31Z" transform="translate(-480 -345.75)"/><path d="M784.57,345.75H1009.9a13.47,13.47,0,0,1,9.71,4.08,12.38,12.38,0,0,1,4.16,9,12.9,12.9,0,0,1-4.16,9.51,13.44,13.44,0,0,1-9.71,4.08H910.55V720.91a13.2,13.2,0,0,1-3.88,9.18,12.44,12.44,0,0,1-9.43,4.16,14.32,14.32,0,0,1-13.32-13.34V372.39H784.57a12.52,12.52,0,0,1-9.44-4.08,13.34,13.34,0,0,1-3.88-9.51,12.76,12.76,0,0,1,3.88-9A12.55,12.55,0,0,1,784.57,345.75Z" transform="translate(-480 -345.75)"/></svg>