<?xml version="1.0" encoding="utf-8"?>
<!-- Generator: Adobe Illustrator 19.2.1, SVG Export Plug-In . SVG Version: 6.00 Build 0)  -->
<svg version="1.1" xmlns="http://www.w3.org/2000/svg" xmlns:xlink="http://www.w3.org/1999/xlink" x="0px" y="0px"
	 viewBox="0 0 1280 720" style="enable-background:new 0 0 1280 720;" xml:space="preserve">
<style type="text/css">
	.st0{fill:#FFFFFF;}
	.st1{fill:url(#SVGID_1_);}
	.st2{opacity:0.4;}
	.st3{opacity:0.2;fill:#FFFFFF;}
	.st4{fill:#F4767A;}
	.st5{fill:#ED5561;}
	.st6{fill:#BBCEE1;}
	.st7{fill:#D8395A;}
	.st8{fill:#933E31;}
	.st9{fill:#1C75BC;}
	.st10{fill:#9D4D36;}
	.st11{fill:#A7BCCE;}
	.st12{fill:#2A87C6;}
	.st13{fill:#E8EBF5;}
	.st14{fill:#0F4463;}
	.st15{fill:#0B3B56;}
	.st16{fill:#1F5E77;}
	.st17{fill:#07304B;}
	.st18{fill:url(#SVGID_2_);}
	.st19{fill:#FED4BD;}
	.st20{fill:#F4C5A2;}
	.st21{fill:#DE495A;}
	.st22{fill:#EF4136;}
	.st23{fill:#91A6B7;}
	.st24{fill:#79FF68;}
	.st25{fill:#50E85E;}
	.st26{fill:#3CC743;}
	.st27{fill:#9263C1;}
	.st28{fill:#8444B2;}
	.st29{fill:#7231A3;}
	.st30{fill:#FFA8E1;}
	.st31{fill:#FF7AD2;}
	.st32{fill:#DE64C6;}
	.st33{fill:#FCEC32;}
	.st34{fill:#F5D012;}
	.st35{fill:#EAA10C;}
	.st36{fill:#EDF0F8;}
	.st37{fill:#F0CEC9;}
	.st38{fill:#FFFBF0;}
	.st39{fill:#F5DDD8;}
	.st40{fill:#DFBAB8;}
</style>
<g id="OBJECTS">
	<g>
		<rect class="st0" width="1280.2" height="720"/>
		<linearGradient id="SVGID_1_" gradientUnits="userSpaceOnUse" x1="822.8266" y1="-2.4061" x2="832.8024" y2="657.6623">
			<stop  offset="0" style="stop-color:#6DB3DA"/>
			<stop  offset="1" style="stop-color:#9BDADF"/>
		</linearGradient>
		<path class="st1" d="M376.3,0c0,0-65.6,139.9,138.7,77.7c204.3-62.2,172.6,23.6,145.1,66.9c-29.9,46.9-69.7,75.4-66.2,121.8
			c4.7,60.8,98.5,63,177.2,101.7c190,93.4-24.6,15.6-97,60.3s-28.2,77.9,71.9,74.5c216.3-7.4,144.5,62.1,108.4,93.6
			c-36.1,31.5-29.9,103.4,140.3,54.8s106.2,68.8,106.2,68.8h179.3V0H376.3z"/>
		<g>
			<g class="st2">
				<g>
					<polygon class="st0" points="819.8,209.9 819.8,212 829.4,217.3 829.4,215.1 					"/>
					<polygon class="st0" points="819.8,213.8 819.8,216 829.4,221.3 829.4,219.1 					"/>
					<polygon class="st0" points="819.8,217.8 819.8,220 829.4,225.2 829.4,223.1 					"/>
					<polygon class="st0" points="892.2,263.6 892.2,261.4 833,229 833,231.2 					"/>
					<polygon class="st0" points="819.8,221.8 819.8,223.9 829.4,229.2 829.4,227 					"/>
					<polygon class="st0" points="819.8,225.7 819.8,227.9 829.4,233.2 829.4,231 					"/>
					<polygon class="st0" points="892.2,267.6 892.2,265.4 833,233 833,235.1 					"/>
					<polygon class="st0" points="819.8,237.6 819.8,239.8 829.4,245 829.4,242.9 					"/>
					<polygon class="st0" points="819.8,241.6 819.8,243.7 829.4,249 829.4,246.8 					"/>
					<polygon class="st0" points="819.8,257.4 819.8,259.6 829.4,264.9 829.4,262.7 					"/>
					<polygon class="st0" points="819.8,261.4 819.8,263.6 829.4,268.8 829.4,266.6 					"/>
					<g>
						<polygon class="st0" points="870.4,289.1 833,268.6 833,270.8 870.4,291.3 						"/>
						<polygon class="st0" points="872.3,290.2 872.3,292.3 892.2,303.2 892.2,301.1 						"/>
					</g>
					<g>
						<polygon class="st0" points="851.8,274.9 833,264.7 833,266.8 851.8,277.1 						"/>
						<polygon class="st0" points="853.7,276 853.7,278.2 892.2,299.3 892.2,297.1 						"/>
					</g>
					<polygon class="st0" points="887.1,282.4 887.1,284.6 892.2,287.4 892.2,285.2 					"/>
					<polygon class="st0" points="859.6,263.4 833,248.8 833,251 859.6,265.6 					"/>
					<polygon class="st0" points="848.7,225.7 833,217.1 833,219.3 848.7,227.9 					"/>
					<g>
						<polygon class="st0" points="874.4,239.8 850.7,226.8 850.7,229 874.4,242 						"/>
					</g>
					<polygon class="st0" points="860.6,236.2 843.9,227 843.9,229.2 860.6,238.4 					"/>
					<g>
						<polygon class="st0" points="878.1,245.8 862.6,237.3 862.6,239.4 878.1,248 						"/>
						<polygon class="st0" points="880.1,246.9 880.1,249.1 892.2,255.7 892.2,253.5 						"/>
					</g>
					<polygon class="st0" points="836.1,226.7 836.1,228.9 848.7,235.8 848.7,233.6 					"/>
					<polygon class="st0" points="887.3,254.8 850.7,234.7 850.7,236.9 887.3,256.9 					"/>
					<polygon class="st0" points="866.3,255.2 842.4,242.1 842.4,244.2 866.3,257.3 					"/>
					<polygon class="st0" points="887.3,266.7 868.3,256.3 868.3,258.4 887.3,268.8 					"/>
					<g>
						<polygon class="st0" points="885.2,277.4 861.6,264.5 861.6,266.6 885.2,279.6 						"/>
					</g>
					<polygon class="st0" points="872.3,274.3 872.3,276.5 885.2,283.5 885.2,281.4 					"/>
					<polygon class="st0" points="837.6,255.3 833,252.8 833,254.9 837.6,257.5 					"/>
					<g>
						<polygon class="st0" points="846.3,260.1 846.3,262.2 870.4,275.4 870.4,273.2 						"/>
						<polygon class="st0" points="844.3,259 839.6,256.4 839.6,258.6 844.3,261.1 						"/>
					</g>
					<polygon class="st0" points="865.9,274.8 839.6,260.3 839.6,262.5 865.9,276.9 					"/>
				</g>
			</g>
			<g class="st2">
				<polygon class="st0" points="871,174 831.2,152.1 831.2,154 871,175.9 				"/>
				<polygon class="st0" points="831.2,157.8 892.2,191.3 892.2,189.4 831.2,155.9 				"/>
				<polygon class="st0" points="873.6,175.4 873.6,177.3 892.2,187.6 892.2,185.6 				"/>
				<polygon class="st0" points="871,181.3 831.2,159.5 831.2,161.4 871,183.3 				"/>
				<polygon class="st0" points="831.2,165.2 892.2,198.7 892.2,196.8 831.2,163.2 				"/>
				<polygon class="st0" points="873.6,184.7 892.2,194.9 892.2,193 873.6,182.8 				"/>
				<polygon class="st0" points="871,193.5 831.2,171.6 831.2,173.5 871,195.4 				"/>
				<polygon class="st0" points="831.2,177.3 892.2,210.9 892.2,208.9 831.2,175.4 				"/>
				<polygon class="st0" points="873.6,196.9 892.2,207.1 892.2,205.2 873.6,194.9 				"/>
				<polygon class="st0" points="871,200.9 831.2,179 831.2,180.9 871,202.8 				"/>
				<polygon class="st0" points="831.2,184.7 892.2,218.2 892.2,216.3 831.2,182.8 				"/>
				<polygon class="st0" points="873.6,204.2 892.2,214.4 892.2,212.5 873.6,202.3 				"/>
				<polygon class="st0" points="871,213 831.2,191.1 831.2,193.1 871,215 				"/>
				<polygon class="st0" points="831.2,196.8 892.2,230.4 892.2,228.5 831.2,194.9 				"/>
				<polygon class="st0" points="873.6,216.4 892.2,226.6 892.2,224.7 873.6,214.5 				"/>
				<polygon class="st0" points="871,220.4 831.2,198.5 831.2,200.4 871,222.3 				"/>
				<polygon class="st0" points="831.2,204.2 892.2,237.7 892.2,235.8 831.2,202.3 				"/>
				<polygon class="st0" points="873.6,223.7 892.2,234 892.2,232 873.6,221.8 				"/>
			</g>
			<path class="st3" d="M763.6,201.5l-29.7-16.3c-1.5-0.8-3.3,0.2-3.3,1.8v33.8c0,1.6,0.9,3.2,2.4,4l29.7,16.3
				c1.5,0.8,3.3-0.2,3.3-1.8l0-33.6C766.1,203.9,765.2,202.4,763.6,201.5z"/>
			<g>
				<g>
					<g>
						<path class="st4" d="M750.4,230.1l-39-21.4c-1.2-0.7-2.6-0.6-3.9,0.1l0,0l-8.6,4.7l4,5.1l1.5,1.6v36.7c0,2.2,1.2,4.2,3.2,5.3
							l29.2,16l0.3,1.5l6,7.9l9.2-5.1c0,0,0,0,0,0l0.1,0v0c0.8-0.5,1.4-1.3,1.4-2.4l0-44.6C753.8,233.3,752.5,231.2,750.4,230.1z"/>
						<path class="st5" d="M741.3,235.1l-39.4-21.6c-1.9-1.1-4.3,0.3-4.3,2.4v44.8c0,2.2,1.2,4.2,3.2,5.3l39.4,21.6
							c2,1.1,4.4-0.3,4.4-2.4l0-44.6C744.7,238.4,743.4,236.3,741.3,235.1z"/>
					</g>
				</g>
				<g>
					<path class="st6" d="M743.2,287.7L743.2,287.7L743.2,287.7C743.1,287.7,743.2,287.7,743.2,287.7z"/>
					<path class="st7" d="M744.7,285.2l0-44.6c0-0.8-0.2-1.5-0.5-2.2l9.1-5c0.2,0.7,0.4,1.3,0.4,2.1l0,44.6c0,1-0.6,1.9-1.4,2.4v0
						l-0.1,0c0,0,0,0,0,0l-9.1,5.1C744.1,287.2,744.7,286.3,744.7,285.2z"/>
				</g>
			</g>
			<g>
				<path class="st0" d="M707,235l-4.8-2.6l0,16.4l3.2,1.7l0-5.8l1.4,0.7c1.9,1,3.3,1.3,4.3,1c1-0.4,1.5-1.5,1.5-3.2
					c0-1.7-0.5-3.2-1.4-4.6C710.2,237.2,708.8,236,707,235z M708.6,243c-0.5,0.2-1.2,0-2.2-0.6l-1-0.6l0-4.9l1.4,0.8
					c0.9,0.5,1.5,1,1.9,1.6c0.4,0.6,0.6,1.3,0.6,2.1C709.3,242.3,709.1,242.8,708.6,243z"/>
				<polygon class="st0" points="723.6,250.6 717.7,247.3 717.7,240.9 714.5,239.1 714.5,255.5 717.7,257.3 717.7,250.2 
					723.6,253.5 723.6,260.5 726.8,262.3 726.8,245.9 723.7,244.2 				"/>
				<path class="st0" d="M738.7,253.7c-1-1.4-2.3-2.6-4.2-3.6l-4.8-2.6l0,16.4l3.2,1.7l0-5.8l1.4,0.7c1.9,1,3.3,1.3,4.3,1
					c1-0.4,1.5-1.4,1.5-3.2C740.1,256.6,739.7,255.1,738.7,253.7z M736.2,258.1c-0.5,0.2-1.2,0-2.2-0.6l-1-0.6l0-4.9l1.4,0.8
					c0.9,0.5,1.5,1,1.9,1.6c0.4,0.6,0.6,1.3,0.6,2.1C736.9,257.5,736.7,258,736.2,258.1z"/>
			</g>
			<g class="st2">
				<g>
					<polygon class="st0" points="658.4,231.7 658.4,233.9 668,239.2 668,237 					"/>
					<polygon class="st0" points="658.4,235.7 658.4,237.9 668,243.1 668,240.9 					"/>
					<polygon class="st0" points="658.4,239.7 658.4,241.8 668,247.1 668,244.9 					"/>
					<polygon class="st0" points="730.8,285.5 730.8,283.3 671.6,250.8 671.6,253 					"/>
					<polygon class="st0" points="658.4,243.6 658.4,245.8 668,251 668,248.9 					"/>
					<polygon class="st0" points="658.4,247.6 658.4,249.7 668,255 668,252.8 					"/>
					<polygon class="st0" points="730.8,289.4 730.8,287.2 671.6,254.8 671.6,257 					"/>
					<polygon class="st0" points="658.4,259.5 658.4,261.6 668,266.9 668,264.7 					"/>
					<polygon class="st0" points="658.4,263.4 658.4,265.6 668,270.9 668,268.7 					"/>
					<polygon class="st0" points="658.4,279.3 658.4,281.4 668,286.7 668,284.5 					"/>
					<polygon class="st0" points="658.4,283.2 658.4,285.4 668,290.7 668,288.5 					"/>
					<g>
						<polygon class="st0" points="709,310.9 671.6,290.5 671.6,292.6 709,313.1 						"/>
						<polygon class="st0" points="711,312 711,314.2 730.8,325.1 730.8,322.9 						"/>
					</g>
					<g>
						<polygon class="st0" points="690.4,296.8 671.6,286.5 671.6,288.7 690.4,299 						"/>
						<polygon class="st0" points="692.4,297.9 692.4,300 730.8,321.1 730.8,318.9 						"/>
					</g>
					<polygon class="st0" points="725.8,304.3 725.8,306.5 730.8,309.2 730.8,307.1 					"/>
					<polygon class="st0" points="698.2,285.2 671.6,270.7 671.6,272.8 698.2,287.4 					"/>
					<polygon class="st0" points="687.3,247.6 671.6,239 671.6,241.1 687.3,249.7 					"/>
					<g>
						<polygon class="st0" points="713.1,261.7 689.3,248.6 689.3,250.8 713.1,263.8 						"/>
					</g>
					<polygon class="st0" points="699.2,258 682.5,248.9 682.5,251 699.2,260.2 					"/>
					<g>
						<polygon class="st0" points="716.8,267.7 701.2,259.1 701.2,261.3 716.8,269.8 						"/>
						<polygon class="st0" points="718.7,268.7 718.7,270.9 730.8,277.5 730.8,275.4 						"/>
					</g>
					<polygon class="st0" points="674.7,248.6 674.7,250.7 687.3,257.7 687.3,255.5 					"/>
					<polygon class="st0" points="725.9,276.6 689.3,256.6 689.3,258.7 725.9,278.8 					"/>
					<polygon class="st0" points="704.9,277 681,263.9 681,266.1 704.9,279.2 					"/>
					<polygon class="st0" points="725.9,288.5 706.9,278.1 706.9,280.3 725.9,290.7 					"/>
					<g>
						<polygon class="st0" points="723.8,299.2 700.2,286.3 700.2,288.5 723.8,301.4 						"/>
					</g>
					<polygon class="st0" points="711,296.2 711,298.3 723.8,305.4 723.8,303.2 					"/>
					<polygon class="st0" points="676.3,277.2 671.6,274.6 671.6,276.8 676.3,279.3 					"/>
					<g>
						<polygon class="st0" points="684.9,281.9 684.9,284.1 709,297.3 709,295.1 						"/>
						<polygon class="st0" points="683,280.8 678.2,278.2 678.2,280.4 683,283 						"/>
					</g>
					<polygon class="st0" points="704.5,296.6 678.2,282.2 678.2,284.4 704.5,298.8 					"/>
				</g>
			</g>
			<path class="st3" d="M944.5,259.9l-29.7-16.3c-1.5-0.8-3.3,0.2-3.3,1.8v33.8c0,1.6,0.9,3.2,2.4,4l29.7,16.3
				c1.5,0.8,3.3-0.2,3.3-1.8l0-33.6C947,262.3,946.1,260.8,944.5,259.9z"/>
			<path class="st3" d="M985.1,194.6l-29.7-16.3c-1.5-0.8-3.3,0.2-3.3,1.8v33.8c0,1.6,0.9,3.2,2.4,4l29.7,16.3
				c1.5,0.8,3.3-0.2,3.3-1.8l0-33.6C987.6,197,986.7,195.5,985.1,194.6z"/>
			<path class="st3" d="M1076.9,371.3l-29.7-16.3c-1.5-0.8-3.3,0.2-3.3,1.8v33.8c0,1.6,0.9,3.2,2.4,4l29.7,16.3
				c1.5,0.8,3.3-0.2,3.3-1.8l0-33.6C1079.4,373.7,1078.4,372.1,1076.9,371.3z"/>
			<path class="st3" d="M818.2,288.2l-29.7-16.3c-1.5-0.8-3.3,0.2-3.3,1.8v33.8c0,1.6,0.9,3.2,2.4,4l29.7,16.3
				c1.5,0.8,3.3-0.2,3.3-1.8l0-33.6C820.7,290.6,819.7,289,818.2,288.2z"/>
			<path class="st8" d="M706.3,565.8c-7.9,0.1-5.3-5.6-5.3-5.6c-11.7-3.4-17.5-1.5-17.5-1.5c-2.9,9.8-1.8,15.7-1.9,18.1
				c-0.1,1.2,0.9,1.9,2,2.3c6.3,2.2,12,3.7,23.8,2.6c8.6-0.8,17.8-8.4,15.7-16.2C721.9,560.7,714.3,565.8,706.3,565.8z"/>
			<path class="st9" d="M702.9,495.4c-2.3-2.9-6.3-5.3-12.8-3.6l-70.5,12.9l2.7,17.2c0,0,10.8,13.5,29.7,8.4
				c18.9-5.1,31.2-13.5,31.2-13.5l-2.4,47.5c0,0,11.1,3.3,20.9-2.4c1.7-0.9,3.2-46.7,3.7-58.5C705.5,500.1,705,498,702.9,495.4z"/>
			<path class="st10" d="M740.2,579.6c-8.2,0.1-5.5-5.8-5.5-5.8c-12.2-3.5-18.1-1.6-18.1-1.6c-3,10.2-1.8,16.4-1.9,18.8
				c-0.1,1.2,0.9,2,2.1,2.4c6.5,2.3,12.5,3.8,24.7,2.7c9-0.8,18.4-8.7,16.3-16.8C756.3,574.2,748.5,579.5,740.2,579.6z"/>
			<g>
				<polygon class="st6" points="660,560.7 599.5,527.4 599.5,535.5 660,568.7 				"/>
				<polygon class="st0" points="654.5,497.4 599.5,527.4 660,560.7 715.1,530.6 				"/>
				<polygon class="st11" points="715.1,530.6 660,560.7 660,568.7 715.1,538.4 				"/>
			</g>
			<path class="st12" d="M736.7,506.4c-2.4-3-6.5-5.5-13.3-3.8l-73.2,13.4l2.8,17.9c0,0,11.2,14,30.9,8.7c19.6-5.3,32.4-14,32.4-14
				l-2.5,49.3c0,0,11.5,3.4,21.7-2.5c1.7-1,3.3-48.5,3.8-60.7C739.3,511.3,738.8,509.1,736.7,506.4z"/>
			<g>
				<path class="st13" d="M605.8,405.8l125.1-69c5.3-2.9,11.8-2.9,17.1,0l197,108.3c5,2.8,5,9.6,0,12.4l-122.3,67.4
					c-6.3,3.5-14.1,3.5-20.4,0l-196.6-108C601.3,414.4,601.3,408.3,605.8,405.8z"/>
				<path class="st11" d="M605.8,416.9l196.6,108c6.3,3.5,14.1,3.4,20.4,0L945,457.5c2.5-1.4,3.7-3.8,3.7-6.2v8.9c0,0,0,0,0,0.1v0.1
					l0,0c0,2.4-1.3,4.7-3.7,6.1l-122.3,67.4c-6.3,3.5-14.1,3.5-20.4,0l-196.6-108c-2.3-1.2-3.4-3.4-3.4-5.6l0,0v-8.9
					C602.4,413.5,603.6,415.7,605.8,416.9z"/>
				<path class="st6" d="M605.8,416.9l196.6,108c2.9,1.6,6.1,2.4,9.3,2.5v8.9c-3.2-0.1-6.4-1-9.3-2.5l-196.6-108
					c-2.3-1.2-3.4-3.4-3.4-5.6l0,0v-8.9C602.4,413.5,603.6,415.7,605.8,416.9z"/>
			</g>
			<g>
				<g>
					<g>
						<path class="st14" d="M698.2,430.7l21.2-11.7c1-0.5,2.2-0.6,3.2,0l65.5,36c0.9,0.5,0.9,1.8,0,2.3l-20.7,11.4
							c-1.2,0.7-2.6,0.7-3.8,0l-65.5-36C697.4,432.4,697.4,431.2,698.2,430.7z"/>
						<path class="st15" d="M698.2,432.8l65.5,36c1.2,0.7,2.6,0.6,3.8,0l20.7-11.4c0.5-0.3,0.7-0.7,0.7-1.2v2.4c0,0,0,0,0,0v0l0,0
							c0,0.4-0.2,0.9-0.7,1.1l-20.7,11.4c-1.2,0.7-2.6,0.7-3.8,0l-65.5-36c-0.4-0.2-0.6-0.6-0.6-1.1h0v-2.4
							C697.6,432.2,697.8,432.6,698.2,432.8z"/>
					</g>
					<g>
						<polygon class="st16" points="719.2,422.3 721.8,420.9 724.9,422.5 722.2,424 						"/>
						<polygon class="st16" points="723,424.4 725.6,422.9 728.6,424.6 726,426 						"/>
						<polygon class="st16" points="726.7,426.5 729.4,425 732.4,426.6 729.7,428.1 						"/>
						<polygon class="st16" points="730.5,428.5 733.1,427.1 736.2,428.7 733.5,430.2 						"/>
						<polygon class="st16" points="734.3,430.6 736.9,429.1 739.9,430.8 737.3,432.2 						"/>
						<polygon class="st16" points="738,432.6 740.7,431.2 743.7,432.8 741.1,434.3 						"/>
						<polygon class="st16" points="741.8,434.7 744.4,433.2 747.5,434.9 744.8,436.3 						"/>
						<polygon class="st16" points="745.6,436.8 748.2,435.3 751.2,436.9 748.6,438.4 						"/>
						<polygon class="st16" points="749.3,438.8 752,437.4 755,439 752.4,440.5 						"/>
						<polygon class="st16" points="753.1,440.9 755.7,439.4 758.8,441.1 756.1,442.5 						"/>
						<polygon class="st16" points="756.9,442.9 759.5,441.5 762.5,443.1 759.9,444.6 						"/>
						<polygon class="st16" points="760.6,445 763.3,443.5 766.3,445.2 763.7,446.6 						"/>
						<polygon class="st16" points="767.1,445.6 770.1,447.2 767.4,448.7 764.4,447.1 						"/>
						<polygon class="st16" points="718.8,425.9 715.7,424.2 718.4,422.8 721.4,424.4 						"/>
						<polygon class="st16" points="725.2,426.5 722.5,427.9 719.5,426.3 722.2,424.8 						"/>
						<polygon class="st16" points="729,428.5 726.3,430 723.3,428.3 725.9,426.9 						"/>
						<polygon class="st16" points="732.7,430.6 730.1,432.1 727,430.4 729.7,428.9 						"/>
						<polygon class="st16" points="736.5,432.7 733.8,434.1 730.8,432.5 733.5,431 						"/>
						<polygon class="st16" points="740.3,434.7 737.6,436.2 734.6,434.5 737.2,433.1 						"/>
						<polygon class="st16" points="744,436.8 741.4,438.2 738.4,436.6 741,435.1 						"/>
						<polygon class="st16" points="747.8,438.8 745.1,440.3 742.1,438.6 744.8,437.2 						"/>
						<polygon class="st16" points="751.6,440.9 748.9,442.4 745.9,440.7 748.5,439.2 						"/>
						<polygon class="st16" points="755.3,443 752.7,444.4 749.7,442.8 752.3,441.3 						"/>
						<polygon class="st16" points="759.1,445 756.4,446.5 753.4,444.8 756.1,443.4 						"/>
						<polygon class="st16" points="762.9,447.1 760.2,448.5 757.2,446.9 759.8,445.4 						"/>
						<polygon class="st16" points="763.6,447.5 766.6,449.1 764,450.6 761,448.9 						"/>
						<polygon class="st16" points="715.3,427.8 712.3,426.1 715,424.7 718,426.3 						"/>
						<polygon class="st16" points="721.8,428.4 719.1,429.8 716.1,428.2 718.7,426.7 						"/>
						<polygon class="st16" points="719.8,430.2 722.5,428.8 725.5,430.4 722.9,431.9 						"/>
						<polygon class="st16" points="729.3,432.5 726.6,434 723.6,432.3 726.3,430.8 						"/>
						<polygon class="st16" points="733.1,434.6 730.4,436 727.4,434.4 730,432.9 						"/>
						<polygon class="st16" points="736.8,436.6 734.2,438.1 731.1,436.4 733.8,435 						"/>
						<polygon class="st16" points="740.6,438.7 737.9,440.1 734.9,438.5 737.6,437 						"/>
						<polygon class="st16" points="744.4,440.7 741.7,442.2 738.7,440.5 741.3,439.1 						"/>
						<polygon class="st16" points="748.1,442.8 745.5,444.3 742.4,442.6 745.1,441.1 						"/>
						<polygon class="st16" points="751.9,444.9 749.2,446.3 746.2,444.7 748.9,443.2 						"/>
						<polygon class="st16" points="755.7,446.9 753,448.4 750,446.7 752.6,445.3 						"/>
						<polygon class="st16" points="753.8,448.8 756.4,447.3 759.4,449 756.8,450.4 						"/>
						<polygon class="st16" points="760.2,449.4 763.2,451 760.5,452.5 757.5,450.8 						"/>
						<polygon class="st16" points="711.9,429.7 708.9,428 711.5,426.5 714.5,428.2 						"/>
						<polygon class="st16" points="712.6,430.1 715.3,428.6 718.3,430.3 715.7,431.7 						"/>
						<polygon class="st16" points="716.4,432.1 719.1,430.7 722.1,432.3 719.4,433.8 						"/>
						<polygon class="st16" points="720.2,434.2 722.8,432.7 725.8,434.4 723.2,435.8 						"/>
						<polygon class="st16" points="723.9,436.3 726.6,434.8 729.6,436.4 727,437.9 						"/>
						<polygon class="st16" points="727.7,438.3 730.4,436.8 733.4,438.5 730.7,440 						"/>
						<polygon class="st16" points="731.5,440.4 734.1,438.9 737.2,440.6 734.5,442 						"/>
						<polygon class="st16" points="735.2,442.4 737.9,441 740.9,442.6 738.3,444.1 						"/>
						<polygon class="st16" points="739,444.5 741.7,443 744.7,444.7 742,446.1 						"/>
						<polygon class="st16" points="742.8,446.6 745.4,445.1 748.5,446.7 745.8,448.2 						"/>
						<polygon class="st16" points="746.5,448.6 749.2,447.1 752.2,448.8 749.6,450.3 						"/>
						<polygon class="st16" points="750.3,450.7 753,449.2 756,450.9 753.3,452.3 						"/>
						<polygon class="st16" points="756.7,451.3 759.8,452.9 757.1,454.4 754.1,452.7 						"/>
						<polygon class="st16" points="708.5,431.6 705.4,429.9 708.1,428.4 711.1,430.1 						"/>
						<polygon class="st16" points="709.2,432 711.9,430.5 714.9,432.2 712.2,433.6 						"/>
						<polygon class="st16" points="713,434 715.6,432.6 718.6,434.2 716,435.7 						"/>
						<polygon class="st16" points="716.7,436.1 719.4,434.6 722.4,436.3 719.8,437.7 						"/>
						<polygon class="st16" points="720.5,438.1 723.2,436.7 726.2,438.3 723.5,439.8 						"/>
						<polygon class="st16" points="724.3,440.2 726.9,438.7 729.9,440.4 727.3,441.9 						"/>
						<polygon class="st16" points="728,442.3 730.7,440.8 733.7,442.5 731.1,443.9 						"/>
						<polygon class="st16" points="731.8,444.3 734.5,442.9 737.5,444.5 734.8,446 						"/>
						<polygon class="st16" points="735.6,446.4 738.2,444.9 741.2,446.6 738.6,448 						"/>
						<polygon class="st16" points="739.3,448.4 742,447 745,448.6 742.4,450.1 						"/>
						<polygon class="st16" points="743.1,450.5 745.8,449 748.8,450.7 746.1,452.2 						"/>
						<polygon class="st16" points="746.9,452.6 749.5,451.1 752.6,452.8 749.9,454.2 						"/>
						<polygon class="st16" points="753.3,453.2 756.3,454.8 753.7,456.3 750.6,454.6 						"/>
						<polygon class="st16" points="704.7,430.3 707.7,432 705,433.4 702,431.8 						"/>
						<polygon class="st16" points="711.4,434 708.8,435.5 705.8,433.9 708.4,432.4 						"/>
						<polygon class="st16" points="715.2,436.1 712.6,437.6 709.5,435.9 712.2,434.5 						"/>
						<polygon class="st16" points="719,438.2 716.3,439.6 713.3,438 716,436.5 						"/>
						<polygon class="st16" points="722.7,440.2 720.1,441.7 717.1,440 719.7,438.6 						"/>
						<polygon class="st16" points="726.5,442.3 723.9,443.7 720.8,442.1 723.5,440.6 						"/>
						<polygon class="st16" points="727.3,442.7 731,444.8 731,444.8 731.8,445.2 734.8,446.8 734.8,446.8 736.3,447.7 738.6,448.9 
							738.6,448.9 740.9,450.2 745.3,452.6 742.7,454 738.1,451.5 735.9,450.3 735.9,450.3 733.6,449.1 732.1,448.3 732.1,448.3 
							729.2,446.6 728.4,446.2 728.4,446.2 724.6,444.2 						"/>
						<polygon class="st16" points="749.1,454.6 746.5,456.1 743.4,454.5 746.1,453 						"/>
						<polygon class="st16" points="752.9,456.7 750.2,458.2 747.2,456.5 749.9,455.1 						"/>
					</g>
					<g>
						<polygon class="st16" points="771.9,451.2 774.6,449.7 777.6,451.4 775,452.8 						"/>
						<polygon class="st16" points="775.7,453.2 778.4,451.8 781.4,453.4 778.7,454.9 						"/>
						<polygon class="st16" points="779.5,455.3 782.1,453.8 785.1,455.5 782.5,456.9 						"/>
						<polygon class="st16" points="774.2,453.3 771.5,454.7 768.5,453.1 771.1,451.6 						"/>
						<polygon class="st16" points="777.9,455.3 775.3,456.8 772.3,455.1 774.9,453.7 						"/>
						<polygon class="st16" points="781.7,457.4 779.1,458.8 776,457.2 778.7,455.7 						"/>
						<polygon class="st16" points="770.7,455.1 768.1,456.6 765.1,455 767.7,453.5 						"/>
						<polygon class="st16" points="774.5,457.2 771.8,458.7 768.8,457 771.5,455.6 						"/>
						<polygon class="st16" points="778.3,459.3 775.6,460.7 772.6,459.1 775.2,457.6 						"/>
						<polygon class="st16" points="761.6,456.8 764.3,455.4 767.3,457 764.6,458.5 						"/>
						<polygon class="st16" points="765.4,458.9 768,457.4 771.1,459.1 768.4,460.6 						"/>
						<polygon class="st16" points="769.1,461 771.8,459.5 774.8,461.2 772.2,462.6 						"/>
						<polygon class="st16" points="758.2,458.7 760.8,457.3 763.9,458.9 761.2,460.4 						"/>
						<polygon class="st16" points="761.9,460.8 764.6,459.3 767.6,461 765,462.5 						"/>
						<polygon class="st16" points="765.7,462.9 768.4,461.4 771.4,463.1 768.7,464.5 						"/>
						<polygon class="st16" points="760.4,460.8 757.8,462.3 754.7,460.6 757.4,459.2 						"/>
						<polygon class="st16" points="764.2,462.9 761.5,464.3 758.5,462.7 761.2,461.2 						"/>
					</g>
				</g>
				<g>
					<path class="st16" d="M745.3,411.4l20.9-11.5c0.9-0.5,2-0.5,2.9,0l49.5,27.2c0.8,0.5,0.8,1.6,0,2.1l-20.4,11.3
						c-1.1,0.6-2.3,0.6-3.4,0l-49.5-27.1C744.5,412.8,744.5,411.8,745.3,411.4z"/>
					<path class="st17" d="M745.3,413.2l49.5,27.1c1.1,0.6,2.3,0.6,3.4,0l20.4-11.3c0.4-0.2,0.6-0.6,0.6-1v2.4c0,0,0,0,0,0v0l0,0
						c0,0.4-0.2,0.8-0.6,1l-20.4,11.3c-1.1,0.6-2.3,0.6-3.4,0l-49.5-27.1c-0.4-0.2-0.6-0.6-0.6-0.9l0,0v-2.4
						C744.7,412.7,744.9,413,745.3,413.2z"/>
					<path class="st15" d="M745.3,413.2l49.5,27.1c0.5,0.3,1,0.4,1.6,0.4v2.4c-0.5,0-1.1-0.2-1.6-0.4l-49.5-27.1
						c-0.4-0.2-0.6-0.6-0.6-0.9l0,0v-2.4C744.7,412.7,744.9,413,745.3,413.2z"/>
				</g>
				<g>
					<polygon class="st14" points="799.5,413.2 761,392 761,410.1 799.5,431.3 					"/>
					<polygon class="st17" points="766.3,389.1 761,392 799.5,413.2 804.8,410.3 					"/>
					<polygon class="st17" points="804.8,410.3 799.5,413.2 799.5,431.3 804.8,428.3 					"/>
				</g>
				<g>
					<g>
						<linearGradient id="SVGID_2_" gradientUnits="userSpaceOnUse" x1="766.3359" y1="419.7368" x2="800.7648" y2="306.455">
							<stop  offset="0" style="stop-color:#1C75BC"/>
							<stop  offset="0.2787" style="stop-color:#2077BC"/>
							<stop  offset="0.5411" style="stop-color:#2B7EBC"/>
							<stop  offset="0.7962" style="stop-color:#3E88BC"/>
							<stop  offset="1" style="stop-color:#5394BC"/>
						</linearGradient>
						<polygon class="st18" points="722,299.8 839.1,364.3 839.1,446.1 722,381.4 						"/>
						<polygon class="st17" points="839.1,364.3 843,362 843,443.8 839.1,446.1 						"/>
						<polygon class="st16" points="722,299.8 726,297.6 843,362 839.1,364.3 						"/>
					</g>
					<path class="st15" d="M722,299.8v81.5l117,64.7l0-81.8L722,299.8z M836.3,441.5l-111.5-61.7v-75.5l111.5,61.4L836.3,441.5z"/>
				</g>
			</g>
			<path class="st19" d="M678.7,400.8c-1.2,11.7-10.3,20.4-20.3,19.5c-10-0.9-17.1-11.2-15.9-22.8c1.2-11.7,10.3-20.4,20.3-19.5
				C672.8,378.9,679.9,389.1,678.7,400.8z"/>
			<path class="st20" d="M693.6,428.1c0,0,4.3,1,5.8,1.1c1.5,0.1,7.2,1.3,9.5,0.6c2.3-0.7-2-2.1-3.1-2.9c-1.1-0.8-1-2.7,1.3-3.3
				c2.4-0.7,7.7-0.4,10.5-0.7c2.8-0.4-2.8-8.5-7.4-9.2c-4.6-0.8-8.5-0.3-12.6,1.6c-3.9,1.8-6,4.9-7.9,5.5L693.6,428.1z"/>
			<path class="st5" d="M694.1,417l-29.7,7.1L663,442l35-11.4C698.7,424.2,694.1,417,694.1,417z"/>
			<path class="st5" d="M621,424.6c0,0-8.2,9.8,0,23.3c0,0,5.7,7.5,21.5,0.2L621,424.6z"/>
			<path class="st21" d="M645.3,413.1c0,0,12.8-0.8,22.8,5.8c0,0,0.7,2,2.8,3.3c2,1.3,12,5.1,12,5.1s-4.4,55.5,0.6,82.5
				c0,0-21.6,16-55.4,0c0,0-4.9-68.1-7.1-85.2C621,424.6,626.6,418,645.3,413.1z"/>
			<g>
				<polygon class="st6" points="639.6,504.7 579.1,471.4 599.5,527.5 660,560.7 				"/>
				<polygon class="st0" points="585.8,467.8 579.1,471.4 639.6,504.7 646.4,501 				"/>
				<polygon class="st11" points="646.4,501 639.6,504.7 660,560.7 666.9,556.9 				"/>
			</g>
			<path class="st20" d="M733.5,452.6c0,0,3.3-3.2,4.6-4.1c1.3-0.9,5.7-4.9,8.2-5.4c2.5-0.5-1.8,3.6-2.3,4.9c-0.5,1.3,2.5-1,4.9-1.9
				c2.4-0.9,5.1-0.7,7.9,0.3c5.7,1.9,5.5,12.8,0.8,11.5c-7.7-2.1-11.2,3.7-15.8,4.9c-3.2,0.8-4.5,0.8-6.5,1.1L733.5,452.6z"/>
			<path class="st5" d="M682.8,427.3l25,31.5l26-7.3c0,0,5.6,6.7,3.8,13.8l-34.7,12.8l-28.2-29.5
				C674.7,448.6,665.2,429.9,682.8,427.3z"/>
			<path class="st10" d="M668.8,368c0,0,1.9,4.4-7.3,5.6c-9.2,1.2-20.6,5.5-23.6,14.8c-1.9,5.9,0.3,12.2,3.4,17.4
				c1.1,1.8,2.3,3.5,3.7,5.1c0,0,6.2,1.6,13.6-2.2c0,0,4.6-2.9,7.3-8.5c0,0,5.5,2.2,7.2-2.2c1.3-3.2,5.2-4,7.4-5.7
				C680.5,392.2,693,372.9,668.8,368z"/>
			<g>
				<polygon class="st6" points="1012.5,535.8 972.4,513.7 972.4,527.9 1012.5,550 				"/>
				<polygon class="st0" points="1013.8,491.1 972.4,513.7 1012.5,535.8 1054,513.1 				"/>
				<polygon class="st11" points="1054,513.1 1012.5,535.8 1012.5,550 1054,527.2 				"/>
			</g>
			<g>
				<polygon class="st6" points="1012.5,512.5 972.4,490.4 972.4,504.6 1012.5,526.7 				"/>
				<polygon class="st0" points="1013.8,467.7 972.4,490.4 1012.5,512.5 1054,489.8 				"/>
				<polygon class="st11" points="1054,489.8 1012.5,512.5 1012.5,526.7 1054,503.9 				"/>
			</g>
			<g>
				<polygon class="st6" points="944.6,573.1 904.5,551 904.5,565.3 944.6,587.3 				"/>
				<polygon class="st0" points="946,528.4 904.5,551 944.6,573.1 986.2,550.5 				"/>
				<polygon class="st11" points="986.2,550.5 944.6,573.1 944.6,587.3 986.2,564.5 				"/>
			</g>
			<g>
				<polygon class="st6" points="944.6,549.8 904.5,527.7 904.5,541.9 944.6,564 				"/>
				<polygon class="st0" points="946,505.1 904.5,527.7 944.6,549.8 986.2,527.1 				"/>
				<polygon class="st11" points="986.2,527.1 944.6,549.8 944.6,564 986.2,541.2 				"/>
			</g>
			<g>
				<polygon class="st6" points="876.8,610.4 836.7,588.3 836.7,602.6 876.8,624.6 				"/>
				<polygon class="st0" points="878.1,565.7 836.7,588.3 876.8,610.4 918.3,587.8 				"/>
				<polygon class="st11" points="918.3,587.8 876.8,610.4 876.8,624.6 918.3,601.8 				"/>
			</g>
			<g>
				<polygon class="st6" points="876.8,587.1 836.7,565 836.7,579.3 876.8,601.3 				"/>
				<polygon class="st0" points="878.1,542.4 836.7,565 876.8,587.1 918.3,564.5 				"/>
				<polygon class="st11" points="918.3,564.5 876.8,587.1 876.8,601.3 918.3,578.5 				"/>
			</g>
			<g>
				<path class="st9" d="M889.3,573.2l-2.5-1.4c-1.8,0.7-3.8,1.1-5.9,1.3l0,2l-6.1,0l0-2c-2.1-0.2-4.1-0.7-5.9-1.3l-2.5,1.4
					l-4.3-2.4l2.5-1.4c-1.2-1-2.1-2.1-2.5-3.2l-3.5,0l0-3.4l3.5,0c0.4-1.1,1.2-2.2,2.4-3.3l-2.5-1.4l4.3-2.4l2.5,1.4
					c1.8-0.7,3.8-1.1,5.9-1.3l0-2h6.1l0,2c2.1,0.2,4.1,0.7,5.9,1.3l2.5-1.4l4.3,2.4l-2.5,1.4c1.2,1,2.1,2.1,2.5,3.2l3.6,0l0,3.4
					l-3.6,0c-0.4,1.1-1.2,2.3-2.4,3.2l2.5,1.4L889.3,573.2z M872.1,567.6c3.1,1.7,8.2,1.7,11.4,0c3.1-1.7,3.1-4.5,0-6.2
					c-3.1-1.7-8.2-1.7-11.4,0C869,563.1,869,565.9,872.1,567.6"/>
			</g>
			<polygon class="st22" points="949.1,517.4 953,525.3 956.9,533.2 942.5,531.1 928.1,528.9 938.6,523.1 			"/>
			<g>
				<path class="st23" d="M998.1,488.1c-2.2-1.2-1.2-2.9,2.9-5.2c2-1.1,3.8-1.8,5.5-2.1c1.7-0.3,3-0.2,3.9,0.3
					c0.5,0.3,0.8,0.6,1.1,0.9c0.2,0.3,0.4,0.7,0.5,1l3.8-0.9c-0.2-0.6-0.6-1.2-1-1.6c-0.4-0.4-1-0.8-1.6-1.2c-2-1.1-4.3-1.5-7.1-1.2
					c-2.7,0.3-5.5,1.2-8.4,2.8c-2.9,1.6-4.6,3.1-5.1,4.6c-0.5,1.5,0.2,2.8,2.2,3.9c1.4,0.7,2.8,1.2,4.2,1.4l2.9-1.6
					C1000.4,489,999.1,488.6,998.1,488.1z"/>
				<path class="st23" d="M1016.2,492.5c0.4-0.7,0.3-1.6-0.1-2.7c-0.3-0.8-0.4-1.4-0.3-1.8c0.1-0.4,0.4-0.8,1.1-1.2
					c0.6-0.3,1.2-0.5,1.9-0.6c0.6,0,1.2,0.1,1.8,0.4c0.5,0.3,0.9,0.6,1.1,0.9c0.2,0.3,0.5,0.7,0.6,1l3.8-0.9
					c-0.5-1.1-1.4-2.1-2.8-2.8c-1.4-0.8-3-1.2-4.8-1.1c-1.7,0-3.4,0.5-4.9,1.3c-0.8,0.4-1.4,0.9-1.8,1.3c-0.4,0.4-0.6,0.9-0.7,1.4
					c-0.1,0.5,0,1.1,0.2,1.8c0.3,0.8,0.4,1.5,0.3,1.9c-0.1,0.5-0.4,0.9-1,1.2c-0.6,0.3-1.2,0.5-1.9,0.5c-0.7,0-1.3-0.1-2-0.5
					c-1.1-0.6-1.9-1.5-2.4-2.7l-3.3,1.8c0.5,0.9,1.5,1.8,3.1,2.7c1.6,0.9,3.3,1.3,5,1.3c1.7,0,3.4-0.5,5.1-1.4
					C1015.1,493.8,1015.8,493.2,1016.2,492.5z"/>
				<path class="st23" d="M1033.6,490.6c-1.4-0.8-3-1.2-4.8-1.2c-1.7,0-3.4,0.5-4.9,1.3c-0.8,0.4-1.4,0.9-1.8,1.3
					c-0.4,0.5-0.6,0.9-0.7,1.4c-0.1,0.5,0,1.1,0.2,1.8c0.3,0.8,0.4,1.5,0.3,2c-0.1,0.5-0.5,0.9-1.1,1.2c-0.6,0.3-1.2,0.5-1.9,0.5
					c-0.7,0-1.3-0.1-2-0.5c-1.1-0.6-1.9-1.5-2.4-2.7l-3.3,1.8c0.5,0.9,1.5,1.8,3.1,2.7c1.6,0.9,3.3,1.3,5,1.3c1.7,0,3.4-0.5,5.1-1.4
					c1-0.6,1.7-1.2,2.1-1.9c0.4-0.7,0.3-1.6-0.1-2.7c-0.3-0.8-0.4-1.4-0.3-1.8c0.1-0.4,0.4-0.8,1-1.2c0.6-0.3,1.2-0.5,1.9-0.6
					c0.6,0,1.2,0.1,1.8,0.4c0.5,0.3,0.9,0.6,1.1,0.9c0.2,0.3,0.5,0.7,0.6,1l3.8-0.9C1035.9,492.3,1034.9,491.4,1033.6,490.6z"/>
			</g>
			<g>
				<g>
					<g>
						<path class="st24" d="M1011.6,363.3l-39-21.4c-1.2-0.7-2.6-0.6-3.9,0.1l0,0l-8.6,4.7l4,5.1l1.5,1.6v36.7
							c0,2.2,1.2,4.2,3.2,5.3l29.2,16l0.3,1.5l6,7.9l9.2-5.1c0,0,0,0,0,0l0.1,0v0c0.8-0.5,1.4-1.3,1.4-2.4l0-44.6
							C1014.9,366.5,1013.6,364.5,1011.6,363.3z"/>
						<path class="st25" d="M1002.5,368.4l-39.4-21.6c-1.9-1.1-4.3,0.3-4.3,2.4V394c0,2.2,1.2,4.2,3.2,5.3l39.4,21.6
							c2,1.1,4.4-0.3,4.4-2.4l0-44.6C1005.8,371.6,1004.5,369.5,1002.5,368.4z"/>
					</g>
				</g>
				<g>
					<path class="st6" d="M1004.3,420.9L1004.3,420.9L1004.3,420.9C1004.3,421,1004.3,421,1004.3,420.9z"/>
					<path class="st26" d="M1005.8,418.5l0-44.6c0-0.8-0.2-1.5-0.5-2.2l9.1-5c0.2,0.7,0.4,1.3,0.4,2.1l0,44.6c0,1-0.6,1.9-1.4,2.4v0
						l-0.1,0c0,0,0,0,0,0l-9.1,5.1C1005.2,420.5,1005.8,419.6,1005.8,418.5z"/>
				</g>
			</g>
			<g>
				<g>
					<g>
						<path class="st27" d="M1056.2,274.2l-39-21.4c-1.2-0.7-2.6-0.6-3.9,0.1l0,0l-8.6,4.7l4,5.1l1.5,1.6V301c0,2.2,1.2,4.2,3.2,5.3
							l29.2,16l0.3,1.5l6,7.9l9.2-5.1c0,0,0,0,0,0l0.1,0v0c0.8-0.5,1.4-1.3,1.4-2.4l0-44.6C1059.5,277.4,1058.2,275.3,1056.2,274.2z
							"/>
						<path class="st28" d="M1047.1,279.2l-39.4-21.6c-1.9-1.1-4.3,0.3-4.3,2.4v44.8c0,2.2,1.2,4.2,3.2,5.3l39.4,21.6
							c2,1.1,4.4-0.3,4.4-2.4l0-44.6C1050.4,282.5,1049.1,280.4,1047.1,279.2z"/>
					</g>
				</g>
				<g>
					<path class="st6" d="M1048.9,331.8L1048.9,331.8L1048.9,331.8C1048.9,331.8,1048.9,331.8,1048.9,331.8z"/>
					<path class="st29" d="M1050.4,329.3l0-44.6c0-0.8-0.2-1.5-0.5-2.2l9.1-5c0.2,0.7,0.4,1.3,0.4,2.1l0,44.6c0,1-0.6,1.9-1.4,2.4v0
						l-0.1,0c0,0,0,0,0,0l-9.1,5.1C1049.8,331.3,1050.4,330.4,1050.4,329.3z"/>
				</g>
			</g>
			<g>
				<g>
					<g>
						<path class="st30" d="M925.9,274.8l-39-21.4c-1.2-0.7-2.6-0.6-3.9,0.1l0,0l-8.6,4.7l4,5.1l1.5,1.6v36.7c0,2.2,1.2,4.2,3.2,5.3
							l29.2,16l0.3,1.5l6,7.9l9.2-5.1c0,0,0,0,0,0l0.1,0v0c0.8-0.5,1.4-1.3,1.4-2.4l0-44.6C929.2,278,927.9,275.9,925.9,274.8z"/>
						<path class="st31" d="M916.8,279.9l-39.4-21.6c-1.9-1.1-4.3,0.3-4.3,2.4v44.8c0,2.2,1.2,4.2,3.2,5.3l39.4,21.6
							c2,1.1,4.4-0.3,4.4-2.4l0-44.6C920.1,283.1,918.8,281,916.8,279.9z"/>
					</g>
				</g>
				<g>
					<path class="st6" d="M918.6,332.4L918.6,332.4L918.6,332.4C918.6,332.4,918.6,332.4,918.6,332.4z"/>
					<path class="st32" d="M920.1,330l0-44.6c0-0.8-0.2-1.5-0.5-2.2l9.1-5c0.2,0.7,0.4,1.3,0.4,2.1l0,44.6c0,1-0.6,1.9-1.4,2.4v0
						l-0.1,0c0,0,0,0,0,0l-9.1,5.1C919.5,331.9,920.1,331.1,920.1,330z"/>
				</g>
			</g>
			<g>
				<g>
					<g>
						<path class="st33" d="M840.6,188.4l-39-21.4c-1.2-0.7-2.6-0.6-3.9,0.1l0,0l-8.6,4.7l4,5.1l1.5,1.6v36.7c0,2.2,1.2,4.2,3.2,5.3
							l29.2,16l0.3,1.5l6,7.9l9.2-5.1c0,0,0,0,0,0l0.1,0v0c0.8-0.5,1.4-1.3,1.4-2.4l0-44.6C843.9,191.6,842.6,189.5,840.6,188.4z"/>
						<path class="st34" d="M831.5,193.4L792,171.8c-1.9-1.1-4.3,0.3-4.3,2.4V219c0,2.2,1.2,4.2,3.2,5.3l39.4,21.6
							c2,1.1,4.4-0.3,4.4-2.4l0-44.6C834.8,196.7,833.5,194.6,831.5,193.4z"/>
					</g>
				</g>
				<g>
					<path class="st6" d="M833.3,246L833.3,246L833.3,246C833.2,246,833.3,246,833.3,246z"/>
					<path class="st35" d="M834.8,243.5l0-44.6c0-0.8-0.2-1.5-0.5-2.2l9.1-5c0.2,0.7,0.4,1.3,0.4,2.1l0,44.6c0,1-0.6,1.9-1.4,2.4v0
						l-0.1,0c0,0,0,0,0,0l-9.1,5.1C834.2,245.5,834.8,244.6,834.8,243.5z"/>
				</g>
			</g>
			<path class="st0" d="M909,288.7c-2.4-3.9-5.5-7-8.7-8.7c-3.1-1.7-6.3-2.1-8.7-0.8c-4.3,2.3-4.8,9.3-1.5,16.3l-10.7,5.8l3.1,5.1
				l10.7-5.8c2.1,2.7,4.5,4.9,7,6.2c3.1,1.7,6.3,2.1,8.7,0.8C913.8,305,913.8,296.6,909,288.7z M905.8,302.5
				c-1.5,0.8-3.5,0.6-5.6-0.5c-2-1.1-4-3-5.5-5.6c-3.1-5-3-10.5,0-12.1c1.5-0.8,3.5-0.6,5.6,0.5c2,1.1,4,3,5.5,5.6
				C908.9,295.4,908.9,300.8,905.8,302.5z"/>
			<g>
				<path class="st28" d="M800.1,197.3c0.6,0.3,1.2,0.8,1.8,1.3c0.6,0.6,1.2,1.2,1.8,1.8l1.1-2.4c-1.6-1.7-3.1-2.9-4.7-3.8
					c-1.5-0.8-2.9-1.2-4-1.1c-1.1,0.1-2,0.7-2.6,1.7c-0.6,1-0.9,2.5-0.9,4.3c0,2.9,0.6,5.4,1.8,7.6c1.2,2.2,3,4,5.3,5.2
					c1.6,0.9,3.1,1.4,4.4,1.5l0-3.1c-1.6-0.3-3-0.7-4.1-1.3c-2.7-1.5-4-4.1-4-8c0-1.9,0.4-3.1,1.1-3.8
					C797.9,196.6,798.8,196.6,800.1,197.3z"/>
				<polygon class="st28" points="813.2,204.5 810.8,203.2 810.8,207.8 806.5,205.5 806.5,208.1 810.8,210.5 810.7,215.1 
					813.1,216.4 813.1,211.8 817.4,214.1 817.4,211.5 813.2,209.2 				"/>
				<polygon class="st28" points="825.9,216.2 826,211.5 823.6,210.2 823.5,214.8 819.3,212.5 819.3,215.1 823.5,217.5 823.5,222.1 
					825.9,223.4 825.9,218.8 830.2,221.1 830.2,218.5 				"/>
			</g>
			<g>
				<path class="st0" d="M1016.2,276.4c-0.4,0.4-0.6,1.2-0.6,2.4l0,5.4l0,0.1c0,1-0.3,1.6-1,1.6c-0.7,0.1-1.7-0.2-2.9-0.9l0,3.7
					c1.3,0.7,2.2,1.5,2.9,2.3c0.7,0.8,1,1.8,1,2.9l0,5.3c0,1.2,0.2,2.3,0.6,3.2c0.4,0.9,1.1,1.8,2,2.6c0.9,0.8,2.2,1.7,3.8,2.6
					l0-3.5c-1-0.6-1.8-1.2-2.1-1.8c-0.4-0.6-0.6-1.3-0.6-2.1l0-5.1l0-0.2c0-2-1.2-3.9-3.5-5.5l0-0.2c2.3,0.9,3.5,0.3,3.6-1.9l0-5.1
					c0-0.8,0.2-1.3,0.6-1.5c0.4-0.2,1.1,0,2.1,0.5l0-3.5c-1.6-0.9-2.9-1.4-3.8-1.6C1017.3,275.9,1016.7,276,1016.2,276.4z"/>
				<path class="st0" d="M1038.3,299c-0.7-0.8-1-1.7-1-2.7l0-0.1l0-5.4c0-1.7-0.5-3.2-1.4-4.5c-1-1.2-2.6-2.5-5-3.8l0,3.5
					c1,0.6,1.8,1.2,2.1,1.8c0.4,0.6,0.6,1.3,0.6,2.1l0,5.1c0,2.2,1.2,4.1,3.6,5.8l0,0.2c-1.2-0.4-2.1-0.5-2.7-0.2
					c-0.6,0.3-0.9,0.9-0.9,1.9l0,0.1l0,5.1c0,0.8-0.2,1.3-0.6,1.5c-0.4,0.2-1.1,0-2.1-0.5l0,3.5c2.4,1.3,4.1,1.9,5,1.7
					c1-0.2,1.5-1.1,1.5-2.9l0-5.3c0-1.1,0.3-1.7,1-1.8c0.7-0.1,1.6,0.2,2.9,0.9l0-3.7C1039.9,300.6,1038.9,299.8,1038.3,299z"/>
			</g>
			<g>
				<polygon class="st16" points="963.7,375.7 975.9,388.3 976,385.1 967.5,376.7 976,377 976,373.8 963.7,373.8 				"/>
				<polygon class="st16" points="977.2,391.7 980.6,393.6 987.4,377.6 984,375.7 				"/>
				<polygon class="st16" points="988.6,380.7 988.6,383.9 997,392.8 988.6,392 988.5,395.2 1000.8,396 1000.8,394.1 				"/>
			</g>
			<g>
				<g>
					<polygon class="st34" points="736.6,316.8 736.6,319 746.2,324.2 746.2,322.1 					"/>
					<polygon class="st36" points="736.6,320.8 736.6,322.9 746.2,328.2 746.2,326 					"/>
					<polygon class="st36" points="736.6,324.7 736.6,326.9 746.2,332.2 746.2,330 					"/>
					<polygon class="st36" points="809,370.5 809,368.4 749.8,335.9 749.8,338.1 					"/>
					<polygon class="st36" points="736.6,328.7 736.6,330.9 746.2,336.1 746.2,334 					"/>
					<polygon class="st36" points="736.6,332.7 736.6,334.8 746.2,340.1 746.2,337.9 					"/>
					<polygon class="st25" points="809,374.5 809,372.3 749.8,339.9 749.8,342.1 					"/>
					<polygon class="st36" points="736.6,344.5 736.6,346.7 746.2,352 746.2,349.8 					"/>
					<polygon class="st34" points="736.6,348.5 736.6,350.7 746.2,355.9 746.2,353.8 					"/>
					<polygon class="st36" points="736.6,364.4 736.6,366.5 746.2,371.8 746.2,369.6 					"/>
					<polygon class="st36" points="736.6,368.3 736.6,370.5 746.2,375.7 746.2,373.6 					"/>
					<g>
						<polygon class="st25" points="787.1,396 749.8,375.6 749.8,377.7 787.1,398.2 						"/>
						<polygon class="st36" points="789.1,397.1 789.1,399.3 809,410.2 809,408 						"/>
					</g>
					<g>
						<polygon class="st36" points="768.6,381.9 749.8,371.6 749.8,373.8 768.6,384 						"/>
						<polygon class="st36" points="770.5,383 770.5,385.1 809,406.2 809,404 						"/>
					</g>
					<polygon class="st36" points="803.9,389.4 803.9,391.5 809,394.3 809,392.1 					"/>
					<polygon class="st5" points="776.4,370.3 749.8,355.7 749.8,357.9 776.4,372.5 					"/>
					<polygon class="st36" points="765.5,332.6 749.8,324 749.8,326.2 765.5,334.8 					"/>
					<g>
						<polygon class="st36" points="791.2,346.7 767.5,333.7 767.5,335.9 791.2,348.9 						"/>
					</g>
					<polygon class="st36" points="777.4,343.1 760.6,333.9 760.6,336.1 777.4,345.3 					"/>
					<g>
						<polygon class="st5" points="794.9,352.7 779.4,344.2 779.4,346.4 794.9,354.9 						"/>
						<polygon class="st36" points="796.9,353.8 796.9,356 809,362.6 809,360.4 						"/>
					</g>
					<polygon class="st5" points="752.9,333.7 752.9,335.8 765.5,342.7 765.5,340.6 					"/>
					<polygon class="st36" points="804.1,361.7 767.5,341.6 767.5,343.8 804.1,363.9 					"/>
					<polygon class="st36" points="783.1,362.1 759.2,349 759.2,351.2 783.1,364.3 					"/>
					<polygon class="st36" points="804.1,373.6 785.1,363.2 785.1,365.4 804.1,375.8 					"/>
					<g>
						<polygon class="st36" points="802,384.3 778.4,371.4 778.4,373.6 802,386.5 						"/>
					</g>
					<polygon class="st25" points="789.1,381.2 789.1,383.4 802,390.5 802,388.3 					"/>
					<polygon class="st36" points="754.4,362.2 749.8,359.7 749.8,361.9 754.4,364.4 					"/>
					<g>
						<polygon class="st36" points="763.1,367 763.1,369.2 787.1,382.3 787.1,380.2 						"/>
						<polygon class="st36" points="761.1,365.9 756.4,363.3 756.4,365.5 761.1,368.1 						"/>
					</g>
					<polygon class="st36" points="782.7,381.7 756.4,367.3 756.4,369.4 782.7,383.9 					"/>
				</g>
				<g>
					<polygon class="st36" points="813.2,358.8 813.2,359.4 815.8,360.8 815.8,360.2 					"/>
					<polygon class="st36" points="813.2,359.9 813.2,360.5 815.8,361.9 815.8,361.3 					"/>
					<polygon class="st36" points="813.2,361 813.2,361.6 815.8,363 815.8,362.4 					"/>
					<polygon class="st36" points="833.1,373.6 833.1,373 816.8,364.1 816.8,364.6 					"/>
					<polygon class="st36" points="813.2,362.1 813.2,362.7 815.8,364.1 815.8,363.5 					"/>
					<polygon class="st36" points="813.2,363.2 813.2,363.7 815.8,365.2 815.8,364.6 					"/>
					<polygon class="st36" points="833.1,374.7 833.1,374.1 816.8,365.1 816.8,365.7 					"/>
					<polygon class="st36" points="813.2,366.4 813.2,367 815.8,368.5 815.8,367.9 					"/>
					<polygon class="st36" points="813.2,367.5 813.2,368.1 815.8,369.6 815.8,369 					"/>
					<polygon class="st36" points="813.2,371.9 813.2,372.5 815.8,373.9 815.8,373.3 					"/>
					<polygon class="st36" points="813.2,373 813.2,373.6 815.8,375 815.8,374.4 					"/>
					<g>
						<polygon class="st36" points="827.1,380.6 816.8,375 816.8,375.6 827.1,381.2 						"/>
						<polygon class="st36" points="827.6,380.9 827.6,381.5 833.1,384.5 833.1,383.9 						"/>
					</g>
					<g>
						<polygon class="st36" points="822,376.7 816.8,373.9 816.8,374.5 822,377.3 						"/>
						<polygon class="st36" points="822.5,377 822.5,377.6 833.1,383.4 833.1,382.8 						"/>
					</g>
					<polygon class="st36" points="831.7,378.8 831.7,379.4 833.1,380.1 833.1,379.5 					"/>
					<polygon class="st36" points="824.1,373.5 816.8,369.5 816.8,370.1 824.1,374.1 					"/>
					<polygon class="st36" points="821.1,363.1 816.8,360.8 816.8,361.4 821.1,363.7 					"/>
					<g>
						<polygon class="st36" points="828.2,367 821.7,363.4 821.7,364 828.2,367.6 						"/>
					</g>
					<polygon class="st36" points="824.4,366 819.8,363.5 819.8,364.1 824.4,366.6 					"/>
					<g>
						<polygon class="st36" points="829.2,368.7 824.9,366.3 824.9,366.9 829.2,369.3 						"/>
						<polygon class="st36" points="829.8,369 829.8,369.6 833.1,371.4 833.1,370.8 						"/>
					</g>
					<polygon class="st36" points="817.7,363.4 817.7,364 821.1,365.9 821.1,365.3 					"/>
					<polygon class="st36" points="831.8,371.2 821.7,365.6 821.7,366.2 831.8,371.8 					"/>
					<polygon class="st36" points="826,371.3 819.4,367.7 819.4,368.3 826,371.9 					"/>
					<polygon class="st36" points="831.8,374.4 826.5,371.6 826.5,372.2 831.8,375 					"/>
					<g>
						<polygon class="st36" points="831.2,377.4 824.7,373.8 824.7,374.4 831.2,378 						"/>
					</g>
					<polygon class="st36" points="827.6,376.5 827.6,377.1 831.2,379.1 831.2,378.5 					"/>
					<polygon class="st36" points="818.1,371.3 816.8,370.6 816.8,371.2 818.1,371.9 					"/>
					<g>
						<polygon class="st36" points="820.5,372.6 820.5,373.2 827.1,376.8 827.1,376.2 						"/>
						<polygon class="st36" points="819.9,372.3 818.6,371.6 818.6,372.2 819.9,372.9 						"/>
					</g>
					<polygon class="st36" points="825.9,376.7 818.6,372.7 818.6,373.3 825.9,377.3 					"/>
				</g>
				<g>
					<polygon class="st36" points="813.2,377.3 813.2,377.9 815.8,379.3 815.8,378.7 					"/>
					<polygon class="st36" points="813.2,378.4 813.2,378.9 815.8,380.4 815.8,379.8 					"/>
					<polygon class="st36" points="813.2,379.4 813.2,380 815.8,381.5 815.8,380.9 					"/>
					<polygon class="st36" points="833.1,392.1 833.1,391.5 816.8,382.5 816.8,383.1 					"/>
					<polygon class="st36" points="813.2,380.5 813.2,381.1 815.8,382.6 815.8,382 					"/>
					<polygon class="st36" points="813.2,381.6 813.2,382.2 815.8,383.7 815.8,383.1 					"/>
					<polygon class="st36" points="833.1,393.2 833.1,392.6 816.8,383.6 816.8,384.2 					"/>
					<polygon class="st36" points="813.2,384.9 813.2,385.5 815.8,386.9 815.8,386.4 					"/>
					<polygon class="st36" points="813.2,386 813.2,386.6 815.8,388 815.8,387.4 					"/>
					<polygon class="st36" points="813.2,390.4 813.2,391 815.8,392.4 815.8,391.8 					"/>
					<polygon class="st36" points="813.2,391.5 813.2,392.1 815.8,393.5 815.8,392.9 					"/>
					<g>
						<polygon class="st36" points="827.1,399.1 816.8,393.4 816.8,394 827.1,399.7 						"/>
						<polygon class="st36" points="827.6,399.4 827.6,400 833.1,403 833.1,402.4 						"/>
					</g>
					<g>
						<polygon class="st36" points="822,395.2 816.8,392.4 816.8,393 822,395.8 						"/>
						<polygon class="st36" points="822.5,395.5 822.5,396.1 833.1,401.9 833.1,401.3 						"/>
					</g>
					<polygon class="st36" points="831.7,397.3 831.7,397.9 833.1,398.6 833.1,398 					"/>
					<polygon class="st36" points="824.1,392 816.8,388 816.8,388.6 824.1,392.6 					"/>
					<polygon class="st36" points="821.1,381.6 816.8,379.3 816.8,379.8 821.1,382.2 					"/>
					<g>
						<polygon class="st36" points="828.2,385.5 821.7,381.9 821.7,382.5 828.2,386.1 						"/>
					</g>
					<polygon class="st36" points="824.4,384.5 819.8,382 819.8,382.6 824.4,385.1 					"/>
					<g>
						<polygon class="st36" points="829.2,387.2 824.9,384.8 824.9,385.4 829.2,387.8 						"/>
						<polygon class="st36" points="829.8,387.5 829.8,388.1 833.1,389.9 833.1,389.3 						"/>
					</g>
					<polygon class="st36" points="817.7,381.9 817.7,382.5 821.1,384.4 821.1,383.8 					"/>
					<polygon class="st36" points="831.8,389.6 821.7,384.1 821.7,384.7 831.8,390.2 					"/>
					<polygon class="st36" points="826,389.7 819.4,386.1 819.4,386.7 826,390.3 					"/>
					<polygon class="st36" points="831.8,392.9 826.5,390 826.5,390.6 831.8,393.5 					"/>
					<g>
						<polygon class="st36" points="831.2,395.9 824.7,392.3 824.7,392.9 831.2,396.5 						"/>
					</g>
					<polygon class="st36" points="827.6,395 827.6,395.6 831.2,397.6 831.2,397 					"/>
					<polygon class="st36" points="818.1,389.8 816.8,389.1 816.8,389.7 818.1,390.4 					"/>
					<g>
						<polygon class="st36" points="820.5,391.1 820.5,391.7 827.1,395.3 827.1,394.7 						"/>
						<polygon class="st36" points="819.9,390.8 818.6,390.1 818.6,390.7 819.9,391.4 						"/>
					</g>
					<polygon class="st36" points="825.9,395.1 818.6,391.2 818.6,391.8 825.9,395.7 					"/>
				</g>
				<g>
					<polygon class="st36" points="813.2,395.7 813.2,396.3 815.8,397.8 815.8,397.2 					"/>
					<polygon class="st36" points="813.2,396.8 813.2,397.4 815.8,398.9 815.8,398.3 					"/>
					<polygon class="st36" points="813.2,397.9 813.2,398.5 815.8,400 815.8,399.4 					"/>
					<polygon class="st36" points="833.1,410.5 833.1,409.9 816.8,401 816.8,401.6 					"/>
					<polygon class="st36" points="813.2,399 813.2,399.6 815.8,401.1 815.8,400.5 					"/>
					<polygon class="st36" points="813.2,400.1 813.2,400.7 815.8,402.1 815.8,401.6 					"/>
					<polygon class="st36" points="833.1,411.6 833.1,411 816.8,402.1 816.8,402.7 					"/>
					<polygon class="st36" points="813.2,403.4 813.2,404 815.8,405.4 815.8,404.8 					"/>
					<polygon class="st36" points="813.2,404.5 813.2,405.1 815.8,406.5 815.8,405.9 					"/>
					<polygon class="st36" points="813.2,408.8 813.2,409.4 815.8,410.9 815.8,410.3 					"/>
					<polygon class="st36" points="813.2,409.9 813.2,410.5 815.8,412 815.8,411.4 					"/>
					<g>
						<polygon class="st36" points="827.1,417.6 816.8,411.9 816.8,412.5 827.1,418.2 						"/>
						<polygon class="st36" points="827.6,417.9 827.6,418.5 833.1,421.5 833.1,420.9 						"/>
					</g>
					<g>
						<polygon class="st36" points="822,413.7 816.8,410.8 816.8,411.4 822,414.3 						"/>
						<polygon class="st36" points="822.5,414 822.5,414.6 833.1,420.4 833.1,419.8 						"/>
					</g>
					<polygon class="st36" points="831.7,415.7 831.7,416.3 833.1,417.1 833.1,416.5 					"/>
					<polygon class="st36" points="824.1,410.5 816.8,406.5 816.8,407.1 824.1,411.1 					"/>
					<polygon class="st36" points="821.1,400.1 816.8,397.7 816.8,398.3 821.1,400.7 					"/>
					<g>
						<polygon class="st36" points="828.2,404 821.7,400.4 821.7,401 828.2,404.6 						"/>
					</g>
					<polygon class="st36" points="824.4,403 819.8,400.5 819.8,401.1 824.4,403.6 					"/>
					<g>
						<polygon class="st36" points="829.2,405.6 824.9,403.3 824.9,403.9 829.2,406.2 						"/>
						<polygon class="st36" points="829.8,405.9 829.8,406.5 833.1,408.4 833.1,407.8 						"/>
					</g>
					<polygon class="st36" points="817.7,400.4 817.7,401 821.1,402.9 821.1,402.3 					"/>
					<polygon class="st36" points="831.8,408.1 821.7,402.6 821.7,403.2 831.8,408.7 					"/>
					<polygon class="st36" points="826,408.2 819.4,404.6 819.4,405.2 826,408.8 					"/>
					<polygon class="st36" points="831.8,411.4 826.5,408.5 826.5,409.1 831.8,412 					"/>
					<g>
						<polygon class="st36" points="831.2,414.3 824.7,410.8 824.7,411.4 831.2,414.9 						"/>
					</g>
					<polygon class="st36" points="827.6,413.5 827.6,414.1 831.2,416 831.2,415.4 					"/>
					<polygon class="st36" points="818.1,408.3 816.8,407.6 816.8,408.2 818.1,408.9 					"/>
					<g>
						<polygon class="st36" points="820.5,409.6 820.5,410.2 827.1,413.8 827.1,413.2 						"/>
						<polygon class="st36" points="819.9,409.3 818.6,408.6 818.6,409.1 819.9,409.9 						"/>
					</g>
					<polygon class="st36" points="825.9,413.6 818.6,409.6 818.6,410.2 825.9,414.2 					"/>
				</g>
				<g>
					<polygon class="st36" points="813.2,414.2 813.2,414.8 815.8,416.3 815.8,415.7 					"/>
					<polygon class="st36" points="813.2,415.3 813.2,415.9 815.8,417.3 815.8,416.8 					"/>
					<polygon class="st36" points="813.2,416.4 813.2,417 815.8,418.4 815.8,417.8 					"/>
					<polygon class="st36" points="833.1,429 833.1,428.4 816.8,419.5 816.8,420.1 					"/>
					<polygon class="st36" points="813.2,417.5 813.2,418.1 815.8,419.5 815.8,418.9 					"/>
					<polygon class="st36" points="813.2,418.6 813.2,419.2 815.8,420.6 815.8,420 					"/>
					<polygon class="st36" points="833.1,430.1 833.1,429.5 816.8,420.6 816.8,421.2 					"/>
					<polygon class="st36" points="813.2,421.9 813.2,422.5 815.8,423.9 815.8,423.3 					"/>
					<polygon class="st36" points="813.2,422.9 813.2,423.5 815.8,425 815.8,424.4 					"/>
					<polygon class="st36" points="831.7,434.2 831.7,434.8 833.1,435.6 833.1,435 					"/>
					<polygon class="st36" points="824.1,429 816.8,424.9 816.8,425.5 824.1,429.6 					"/>
					<polygon class="st36" points="821.1,418.6 816.8,416.2 816.8,416.8 821.1,419.2 					"/>
					<g>
						<polygon class="st36" points="828.2,422.5 821.7,418.9 821.7,419.5 828.2,423.1 						"/>
					</g>
					<polygon class="st36" points="824.4,421.5 819.8,418.9 819.8,419.5 824.4,422.1 					"/>
					<g>
						<polygon class="st36" points="829.2,424.1 824.9,421.8 824.9,422.4 829.2,424.7 						"/>
						<polygon class="st36" points="829.8,424.4 829.8,425 833.1,426.8 833.1,426.2 						"/>
					</g>
					<polygon class="st36" points="817.7,418.9 817.7,419.5 821.1,421.4 821.1,420.8 					"/>
					<polygon class="st36" points="831.8,426.6 821.7,421.1 821.7,421.7 831.8,427.2 					"/>
					<polygon class="st36" points="826,426.7 819.4,423.1 819.4,423.7 826,427.3 					"/>
					<polygon class="st36" points="831.8,429.9 826.5,427 826.5,427.6 831.8,430.5 					"/>
					<g>
						<polygon class="st36" points="831.2,432.8 824.7,429.3 824.7,429.8 831.2,433.4 						"/>
					</g>
					<polygon class="st36" points="827.6,432 827.6,432.6 831.2,434.5 831.2,433.9 					"/>
					<polygon class="st36" points="818.1,426.7 816.8,426 816.8,426.6 818.1,427.3 					"/>
					<g>
						<polygon class="st36" points="820.5,428 820.5,428.6 827.1,432.3 827.1,431.7 						"/>
						<polygon class="st36" points="819.9,427.7 818.6,427 818.6,427.6 819.9,428.3 						"/>
					</g>
					<polygon class="st36" points="825.9,432.1 818.6,428.1 818.6,428.7 825.9,432.7 					"/>
				</g>
				<g>
					<path class="st25" d="M730.5,313.4l-3.2-1.7c-0.2-0.1-0.3,0-0.3,0.2v3.6c0,0.2,0.1,0.3,0.3,0.4l3.2,1.7c0.2,0.1,0.4,0,0.4-0.2
						v-3.6C730.7,313.7,730.6,313.5,730.5,313.4z"/>
					<path class="st25" d="M730.5,318.8l-3.2-1.7c-0.2-0.1-0.3,0-0.3,0.2v3.6c0,0.2,0.1,0.3,0.3,0.4l3.2,1.7c0.2,0.1,0.4,0,0.4-0.2
						v-3.6C730.7,319.1,730.6,318.9,730.5,318.8z"/>
					<path class="st25" d="M730.5,324.2l-3.2-1.7c-0.2-0.1-0.3,0-0.3,0.2v3.6c0,0.2,0.1,0.3,0.3,0.4l3.2,1.7c0.2,0.1,0.4,0,0.4-0.2
						v-3.6C730.7,324.4,730.6,324.3,730.5,324.2z"/>
					<path class="st25" d="M730.5,329.6l-3.2-1.7c-0.2-0.1-0.3,0-0.3,0.2v3.6c0,0.2,0.1,0.3,0.3,0.4l3.2,1.7c0.2,0.1,0.4,0,0.4-0.2
						V330C730.7,329.8,730.6,329.7,730.5,329.6z"/>
					<path class="st25" d="M730.5,334.9l-3.2-1.7c-0.2-0.1-0.3,0-0.3,0.2v3.6c0,0.2,0.1,0.3,0.3,0.4l3.2,1.7c0.2,0.1,0.4,0,0.4-0.2
						v-3.6C730.7,335.2,730.6,335,730.5,334.9z"/>
					<path class="st25" d="M730.5,340.3l-3.2-1.7c-0.2-0.1-0.3,0-0.3,0.2v3.6c0,0.2,0.1,0.3,0.3,0.4l3.2,1.7c0.2,0.1,0.4,0,0.4-0.2
						v-3.6C730.7,340.6,730.6,340.4,730.5,340.3z"/>
					<path class="st25" d="M730.5,345.7l-3.2-1.7c-0.2-0.1-0.3,0-0.3,0.2v3.6c0,0.2,0.1,0.3,0.3,0.4l3.2,1.7c0.2,0.1,0.4,0,0.4-0.2
						v-3.6C730.7,346,730.6,345.8,730.5,345.7z"/>
					<path class="st25" d="M730.5,351.1l-3.2-1.7c-0.2-0.1-0.3,0-0.3,0.2v3.6c0,0.2,0.1,0.3,0.3,0.4l3.2,1.7c0.2,0.1,0.4,0,0.4-0.2
						v-3.6C730.7,351.3,730.6,351.2,730.5,351.1z"/>
					<path class="st25" d="M730.5,356.5l-3.2-1.7c-0.2-0.1-0.3,0-0.3,0.2v3.6c0,0.2,0.1,0.3,0.3,0.4l3.2,1.7c0.2,0.1,0.4,0,0.4-0.2
						v-3.6C730.7,356.7,730.6,356.5,730.5,356.5z"/>
					<path class="st25" d="M730.5,361.8l-3.2-1.7c-0.2-0.1-0.3,0-0.3,0.2v3.6c0,0.2,0.1,0.3,0.3,0.4l3.2,1.7c0.2,0.1,0.4,0,0.4-0.2
						v-3.6C730.7,362.1,730.6,361.9,730.5,361.8z"/>
					<path class="st25" d="M730.5,367.2l-3.2-1.7c-0.2-0.1-0.3,0-0.3,0.2v3.6c0,0.2,0.1,0.3,0.3,0.4l3.2,1.7c0.2,0.1,0.4,0,0.4-0.2
						v-3.6C730.7,367.5,730.6,367.3,730.5,367.2z"/>
					<path class="st25" d="M730.5,372.6l-3.2-1.7c-0.2-0.1-0.3,0-0.3,0.2v3.6c0,0.2,0.1,0.3,0.3,0.4l3.2,1.7c0.2,0.1,0.4,0,0.4-0.2
						V373C730.7,372.8,730.6,372.7,730.5,372.6z"/>
				</g>
			</g>
			<g class="st2">
				<g>
					<polygon class="st0" points="878.9,332.5 878.9,334.7 888.5,339.9 888.5,337.7 					"/>
					<polygon class="st0" points="878.9,336.5 878.9,338.6 888.5,343.9 888.5,341.7 					"/>
					<polygon class="st0" points="878.9,340.4 878.9,342.6 888.5,347.8 888.5,345.7 					"/>
					<polygon class="st0" points="951.3,386.2 951.3,384 892.1,351.6 892.1,353.8 					"/>
					<polygon class="st0" points="878.9,344.4 878.9,346.6 888.5,351.8 888.5,349.6 					"/>
					<polygon class="st0" points="878.9,348.3 878.9,350.5 888.5,355.8 888.5,353.6 					"/>
					<polygon class="st0" points="951.3,390.2 951.3,388 892.1,355.6 892.1,357.7 					"/>
					<polygon class="st0" points="878.9,360.2 878.9,362.4 888.5,367.7 888.5,365.5 					"/>
					<polygon class="st0" points="878.9,364.2 878.9,366.4 888.5,371.6 888.5,369.5 					"/>
					<polygon class="st0" points="878.9,380 878.9,382.2 888.5,387.5 888.5,385.3 					"/>
					<polygon class="st0" points="878.9,384 878.9,386.2 888.5,391.4 888.5,389.3 					"/>
					<g>
						<polygon class="st0" points="929.5,411.7 892.1,391.2 892.1,393.4 929.5,413.9 						"/>
						<polygon class="st0" points="931.4,412.8 931.4,415 951.3,425.8 951.3,423.7 						"/>
					</g>
					<g>
						<polygon class="st0" points="910.9,397.6 892.1,387.3 892.1,389.4 910.9,399.7 						"/>
						<polygon class="st0" points="912.9,398.6 912.9,400.8 951.3,421.9 951.3,419.7 						"/>
					</g>
					<polygon class="st0" points="946.3,405.1 946.3,407.2 951.3,410 951.3,407.8 					"/>
					<polygon class="st0" points="918.7,386 892.1,371.4 892.1,373.6 918.7,388.2 					"/>
					<polygon class="st0" points="907.8,348.3 892.1,339.7 892.1,341.9 907.8,350.5 					"/>
					<g>
						<polygon class="st0" points="933.6,362.4 909.8,349.4 909.8,351.6 933.6,364.6 						"/>
					</g>
					<polygon class="st0" points="919.7,358.8 903,349.6 903,351.8 919.7,361 					"/>
					<g>
						<polygon class="st0" points="937.3,368.4 921.7,359.9 921.7,362 937.3,370.6 						"/>
						<polygon class="st0" points="939.2,369.5 939.2,371.7 951.3,378.3 951.3,376.1 						"/>
					</g>
					<polygon class="st0" points="895.2,349.3 895.2,351.5 907.8,358.4 907.8,356.2 					"/>
					<polygon class="st0" points="946.4,377.4 909.8,357.3 909.8,359.5 946.4,379.6 					"/>
					<polygon class="st0" points="925.4,377.8 901.5,364.7 901.5,366.9 925.4,380 					"/>
					<polygon class="st0" points="946.4,389.3 927.4,378.9 927.4,381 946.4,391.4 					"/>
					<g>
						<polygon class="st0" points="944.3,400 920.7,387.1 920.7,389.2 944.3,402.2 						"/>
					</g>
					<polygon class="st0" points="931.4,396.9 931.4,399.1 944.3,406.1 944.3,404 					"/>
					<polygon class="st0" points="896.8,377.9 892.1,375.4 892.1,377.6 896.8,380.1 					"/>
					<g>
						<polygon class="st0" points="905.4,382.7 905.4,384.8 929.5,398 929.5,395.9 						"/>
						<polygon class="st0" points="903.5,381.6 898.7,379 898.7,381.2 903.5,383.8 						"/>
					</g>
					<polygon class="st0" points="925,397.4 898.7,383 898.7,385.1 925,399.5 					"/>
				</g>
			</g>
			<g class="st2">
				<g>
					<polygon class="st0" points="967.1,196.7 967.1,198.9 976.7,204.1 976.7,201.9 					"/>
					<polygon class="st0" points="967.1,200.6 967.1,202.8 976.7,208.1 976.7,205.9 					"/>
					<polygon class="st0" points="967.1,204.6 967.1,206.8 976.7,212 976.7,209.9 					"/>
					<polygon class="st0" points="1039.5,250.4 1039.5,248.2 980.3,215.8 980.3,218 					"/>
					<polygon class="st0" points="967.1,208.6 967.1,210.7 976.7,216 976.7,213.8 					"/>
					<polygon class="st0" points="967.1,212.5 967.1,214.7 976.7,220 976.7,217.8 					"/>
					<polygon class="st0" points="1039.5,254.4 1039.5,252.2 980.3,219.8 980.3,221.9 					"/>
					<polygon class="st0" points="967.1,224.4 967.1,226.6 976.7,231.8 976.7,229.7 					"/>
					<polygon class="st0" points="967.1,228.4 967.1,230.6 976.7,235.8 976.7,233.6 					"/>
					<polygon class="st0" points="967.1,244.2 967.1,246.4 976.7,251.7 976.7,249.5 					"/>
					<polygon class="st0" points="967.1,248.2 967.1,250.4 976.7,255.6 976.7,253.5 					"/>
					<g>
						<polygon class="st0" points="1017.7,275.9 980.3,255.4 980.3,257.6 1017.7,278.1 						"/>
						<polygon class="st0" points="1019.6,277 1019.6,279.1 1039.5,290 1039.5,287.9 						"/>
					</g>
					<g>
						<polygon class="st0" points="999.1,261.7 980.3,251.5 980.3,253.6 999.1,263.9 						"/>
						<polygon class="st0" points="1001,262.8 1001,265 1039.5,286.1 1039.5,283.9 						"/>
					</g>
					<polygon class="st0" points="1034.5,269.2 1034.5,271.4 1039.5,274.2 1039.5,272 					"/>
					<polygon class="st0" points="1006.9,250.2 980.3,235.6 980.3,237.8 1006.9,252.4 					"/>
					<polygon class="st0" points="996,212.5 980.3,203.9 980.3,206.1 996,214.7 					"/>
					<g>
						<polygon class="st0" points="1021.8,226.6 998,213.6 998,215.8 1021.8,228.8 						"/>
					</g>
					<polygon class="st0" points="1007.9,223 991.2,213.8 991.2,216 1007.9,225.2 					"/>
					<g>
						<polygon class="st0" points="1025.5,232.6 1009.9,224.1 1009.9,226.2 1025.5,234.8 						"/>
						<polygon class="st0" points="1027.4,233.7 1027.4,235.9 1039.5,242.5 1039.5,240.3 						"/>
					</g>
					<polygon class="st0" points="983.4,213.5 983.4,215.7 996,222.6 996,220.4 					"/>
					<polygon class="st0" points="1034.6,241.6 998,221.5 998,223.7 1034.6,243.7 					"/>
					<polygon class="st0" points="1013.6,242 989.7,228.9 989.7,231 1013.6,244.1 					"/>
					<polygon class="st0" points="1034.6,253.5 1015.6,243.1 1015.6,245.2 1034.6,255.6 					"/>
					<g>
						<polygon class="st0" points="1032.5,264.2 1008.9,251.3 1008.9,253.4 1032.5,266.4 						"/>
					</g>
					<polygon class="st0" points="1019.6,261.1 1019.6,263.3 1032.5,270.3 1032.5,268.2 					"/>
					<polygon class="st0" points="984.9,242.1 980.3,239.6 980.3,241.7 984.9,244.3 					"/>
					<g>
						<polygon class="st0" points="993.6,246.9 993.6,249 1017.7,262.2 1017.7,260 						"/>
						<polygon class="st0" points="991.6,245.8 986.9,243.2 986.9,245.4 991.6,248 						"/>
					</g>
					<polygon class="st0" points="1013.2,261.6 986.9,247.2 986.9,249.3 1013.2,263.7 					"/>
				</g>
			</g>
			<path class="st14" d="M793.7,475.1c0,0-5.4-2.3-11.8,1.7c-6.4,4-10.6,9.6-8.1,11.7c2.6,2.1,7.6,4.3,10.9,3.2
				C788,490.6,804.1,481.5,793.7,475.1z"/>
			<g>
				<polygon class="st5" points="927.9,451.5 877.6,478.5 845.6,460.9 895.9,433.9 				"/>
				<g>
					<polygon class="st37" points="887.5,477.9 887.5,479 937.7,451.6 937.7,450.8 					"/>
					<polygon class="st38" points="937.7,450.8 887.5,477.9 855.4,460.3 905.7,433.3 					"/>
					<polygon class="st39" points="887.5,477.9 887.5,479 855.4,461.4 855.4,460.3 					"/>
				</g>
				<polygon class="st40" points="905.4,436.1 924.7,446.7 923.9,447.2 904.5,436.6 				"/>
				<polygon class="st40" points="903.3,437.2 922.7,447.8 921.9,448.3 902.5,437.7 				"/>
				<polygon class="st40" points="898.7,439.7 925.3,454.4 924.5,454.8 897.8,440.2 				"/>
				<polygon class="st40" points="896.8,440.7 923.5,455.3 922.6,455.8 896,441.2 				"/>
				<polygon class="st40" points="895,441.7 921.6,456.3 920.8,456.8 894.1,442.2 				"/>
				<polygon class="st40" points="893.1,442.7 919.8,457.3 918.9,457.8 892.3,443.2 				"/>
				<polygon class="st40" points="891.3,443.7 917.9,458.3 917.1,458.8 890.4,444.2 				"/>
				<polygon class="st40" points="889.4,444.7 916.1,459.3 915.2,459.8 888.6,445.2 				"/>
				<polygon class="st40" points="887.6,445.7 914.3,460.3 913.4,460.8 886.8,446.2 				"/>
				<polygon class="st40" points="885.8,446.7 912.4,461.3 911.6,461.8 884.9,447.2 				"/>
				<polygon class="st40" points="883.9,447.7 910.6,462.3 909.7,462.8 883.1,448.2 				"/>
				<polygon class="st40" points="882.1,448.7 908.7,463.3 907.9,463.8 881.2,449.1 				"/>
				<polygon class="st40" points="880.2,449.7 906.9,464.3 906,464.8 879.4,450.1 				"/>
				<polygon class="st40" points="878.4,450.7 905,465.3 904.2,465.7 877.5,451.1 				"/>
				<polygon class="st40" points="876.5,451.7 903.2,466.3 902.3,466.7 875.7,452.1 				"/>
				<polygon class="st40" points="874.7,452.7 901.3,467.3 900.5,467.7 873.8,453.1 				"/>
				<polygon class="st40" points="872.8,453.7 899.5,468.3 898.6,468.7 872,454.1 				"/>
			</g>
			<g>
				<path class="st11" d="M851.1,467.2h-4.7v4.8h4.7c1.7,0,3.2,1.4,3.2,3v7.8c0,1.7-1.4,3-3.2,3h-6.9v4.8h6.9c4.5,0,8.2-3.5,8.2-7.8
					v-7.8C859.4,470.8,855.7,467.2,851.1,467.2z"/>
				<path class="st6" d="M849.4,464.6v27.1c0,4.2-6.6,7.6-14.7,7.6c-8.1,0-14.7-3.4-14.7-7.6v-27.1H849.4z"/>
				<ellipse class="st0" cx="834.6" cy="464.6" rx="14.7" ry="7.6"/>
				<ellipse class="st11" cx="834.6" cy="464.5" rx="11.8" ry="6"/>
				<path class="st10" d="M834.6,462.4c-5.2,0-9.5,1.7-11.1,4c1.6,2.3,6,4,11.1,4c5.2,0,9.5-1.7,11.1-4
					C844.2,464.1,839.8,462.4,834.6,462.4z"/>
				<path class="st11" d="M840.2,471.6v27.1c2.9-0.6,5.3-1.7,6.9-3v-27.1C845.5,469.9,843.1,471,840.2,471.6z"/>
			</g>
		</g>
	</g>
</g>
<g id="DESIGNED_BY_FREEPIK">
</g>
</svg>
